<svg width="207" height="73" xmlns="http://www.w3.org/2000/svg" version="1.1">
    <metadata id="metadata38">image/svg+xml</metadata>

    <g>
        <title>Layer 1</title>
        <g transform="matrix(1 0 0 1 0 0)" id="svg_2">
            <svg y="0" x="0" viewBox="0 0 380 280" version="1.1" id="svg_1" width="100%" height="100%" />
        </g>
        <g stroke="null" stroke-width="27" fill="#1E80FF" font-family="Dream-BeautyLongGB" font-size="40px"
            aria-label="V" id="text4">
            <path stroke="null" fill="#1E80FF"
                d="m85.35216,8.8q0.47828,0.87999 0.47828,2.31999q0,1.24001 -0.33479,2.4q-0.04783,0.20001 -2.67836,9.16q-2.5827,8.96 -4.49581,11.68q-0.62176,0.8 -2.0566,1.12q-1.43483,0.32 -2.72618,0.28l-0.66959,0.04q-2.00877,0 -3.10881,-0.92q-1.05221,-0.88 -1.43483,-2.04l-5.78716,-23.19999q-0.19131,-1 -0.66959,-1.24001q-0.43045,-0.28 -0.47828,-0.31999q0.62176,-0.84001 1.91311,-1.40001q1.33918,-0.59999 3.20446,-0.59999q1.81746,0 2.82184,0.72q1.00438,0.68 1.24352,1.71999l3.58708,13.96l0.19131,0.08q0.28697,0.16 0.47828,0.16q0.57393,0 1.00438,-0.96q0.52611,-1.16 1.62614,-5.36q0.28697,-1.19999 0.33479,-1.36q0,-0.19999 0.28697,-0.19999q0.81307,0.04 1.86528,-0.2q1.05221,-0.28 1.91311,-1.16q0.95656,-0.92001 0.95656,-2.08001q0,-0.19999 -0.09566,-0.75999q-0.23914,-0.92 -1.14787,-1.44q-0.8609,-0.56 -1.76963,-0.56q-0.28697,0 -0.57393,0.08q-0.81307,0.28 -1.19569,0.79999q-0.38262,0.48001 -0.38262,0.92001q0.04783,0.48 0.23914,0.79999q0.19131,0.32 0.8609,0.52001q0,0 0,0.04q0.04783,0 0.04783,0l0.09566,0q0.23914,0 0.28697,-0.20001q0.04783,-0.2 -0.19131,-0.28q-0.52611,-0.28 -0.52611,-0.71999q0,-0.48001 0.33479,-0.8q0.38262,-0.32 0.90873,-0.32q0.57393,0 1.19569,0.44q0.38262,0.23999 0.52611,0.64q0.14348,0.36 0.14348,0.52q0,1 -0.66959,1.72q-0.95656,1.03999 -2.5827,1.03999q-1.05221,0 -2.00877,-0.47999q-0.90873,-0.52001 -1.38701,-1.48001q-0.38262,-0.76 -0.38262,-1.48q0,-1 0.52611,-1.88q0.52611,-0.92 1.38701,-1.48q0.57393,-0.44 1.57832,-0.72q1.00438,-0.31999 2.29573,-0.31999q2.00877,0 3.15663,0.76q1.14787,0.75999 1.86528,2.04z"
                id="path40" />
        </g>
        <g stroke="null" stroke-width="27" fill="#1E80FF" font-family="Dream-BeautyLongGB" font-size="40px"
            aria-label="n" id="text6">
            <path stroke="null" fill="#1E80FF"
                d="m114.12044,24.73999q0.44,0.92 0.76,2.2q0.32,1.24 0.32,2.56q0,2.68 -1.36,4.84001q-1.36,2.15999 -4.96,2.15999q-0.56,0 -1.04,-0.12q-1.52,-0.36 -2.28,-1.84q-0.76,-1.52 -0.84,-3.4l0.04,-5.08q0,-2.44 -0.04,-3.24q-0.04,-1.68 -0.8,-2.32q-0.76,-0.67999 -2.44,-0.51999q-1.48,0.15999 -2.28,1.59999q0,7.12 -0.04,8.84q0.16,2.52 -0.76,4.32q-0.92,1.8 -3.2,1.8q-1.32,0 -2.16,-0.52q-0.8,-0.52 -1.44,-1.6q-0.64,-1.07999 -0.64,-2.44q0,-0.92 0.28,-1.63999q0.16,0.04 0.48,0.04q0.76,0 1.08,-0.4q0.44,-0.4 0.52,-1.28l0,-7.72q-0.44,0.12 -0.88,0.12q-1.04,0 -1.48,-0.68q-0.32,-0.51999 -0.32,-1.03999q0,-0.72 0.48,-1.36001q0.52,-0.63999 1.44,-0.96q0.04,0 0.56,-0.11999q0.56,-0.16001 1.16,-0.76q0.6,-0.64 0.76,-1.60001q0.08,-0.56 0.56,-0.8q0.48,-0.28 1.08,-0.28q0.52,0 0.84,0.16001q0.32,0.19999 0.68,0.72q0.36,0.47999 0.64,1.28q1.4,-0.92001 3.44,-1.16001q0.92,-0.11999 1.72,-0.11999q3.72,0 5.32,2q1.6,1.96 1.44,4.79999l0,3.4q0.16,0.52 0.48,0.8q0.24,0.16 0.68,0.16q1.04,0 2.2,-0.8l0,-0.00001z"
                id="path43" />
        </g>
        <g stroke="null" stroke-width="27" fill="#1E80FF" font-family="Dream-BeautyLongGB" font-size="40px"
            aria-label="a" id="text8">
            <path stroke="null" fill="#1E80FF"
                d="m140.30544,28.14001q0.4,0.36 0.64,1.16q0.28,0.8 0.28,1.92q0,2.64 -1.36,4.12q-1.36,1.48001 -3.56,1.48001q-1.72,0 -2.68,-1.32001q-0.92,-1.28 -1.12,-3.08l-0.36,-2.64q-0.16,-0.64 -0.72,-1.2q-0.52,-0.6 -1.6,-0.84q-0.4,-0.08 -0.72,-0.08q-0.56,0 -1.12,0.2q-0.56,0.2 -0.88,0.64q-0.48,0.52 -0.48,1.4q0,0.72 0.32,1.16q0.52,0.92 1.52,0.92q0.88,0 1.2,-0.28q0.32,-0.32 0.56,-0.96q0.04,-0.2 0.04,-0.52l-0.04,-0.6q0.88,0.24 1.32,1q0.44,0.76 0.44,1.72q0,1.4 -0.72,2.44q-0.68,0.92 -1.96,1.4q-1.28,0.48 -2.72,0.48q-1.4,0 -2.32,-0.4q-1.04,-0.32 -2.04,-1.24q-0.96,-0.96 -1.52,-2.56q-0.44,-1.32 -0.44,-2.36q0,-1.96 1.28,-3.56q1.04,-1.28 2.56,-1.88q1.52,-0.6 3,-0.6q0.04,0 0.44,0q0.44,-0.04 2.04,-0.04l1.4,0q0.64,-0.16 1.12,-0.76q0.48,-0.6 0.48,-1.8q0,-1.31999 -0.56,-2.12q-0.56,-0.84 -1.16,-1.08q-0.56,-0.23999 -1.36,-0.23999q-0.68,0 -1.16,0.23999q-0.48,0.20001 -0.56,0.68l0,0.08q0,0.31999 0.16,0.51999q0.16,0.20001 0.36,0.24q0.32,0.16001 0.56,0.16001q0.2,0 0.32,-0.08q0.24,0.32 0.24,0.79999q0,0.6 -0.36,1.16001q-0.32,0.63999 -1.24,1.07999q-0.88,0.44 -2.04,0.44q-0.76,0 -1.6,-0.24q-1.52,-0.44 -2.24,-1.6q-0.72,-1.16 -0.72,-2.6q0,-0.95999 0.72,-1.95999q0.72,-1 2.52,-1.72001q1.84,-0.72 4.84,-0.72q4.36,0.04 6.16,1.48q1.84,1.44001 2.56,3.16001l0,0.04q0.52,1.15999 0.56,3.23999l0,5.72q0,0.44 0.16,0.72q0.2,0.28 0.48,0.28q0.24,0 0.52,-0.24q0.56,-0.52 0.56,-0.76l0,0.00001z"
                id="path46" />
        </g>
        <g stroke-width="27" fill="#1E80FF" font-family="Dream-BeautyLongGB" font-size="40px" aria-label="i"
            id="text10">
            <path fill="#1E80FF"
                d="m148.66,13.02q-0.68,-0.40001 -1.12,-1.08q-0.4,-0.68001 -0.4,-1.44001q0,-0.79999 0.4,-1.47999q0.44,-0.72 1.12,-1.12001q0.68,-0.39999 1.48,-0.39999q0.8,0 1.44,0.39999q0.68,0.40001 1.08,1.12001q0.44,0.68 0.44,1.47999q0,0.76 -0.44,1.44001q-0.4,0.67999 -1.08,1.08q-0.64,0.4 -1.44,0.4q-0.8,0 -1.48,-0.4zm5.2,10.15999l0,7.96q0,2.56 -0.84,4.36q-0.84,1.76 -3.04,1.76q-1.32,0 -2.12,-0.52q-0.8,-0.48 -1.44,-1.56q-0.64,-1.12 -0.64,-2.36q0,-0.96 0.32,-1.68q0.32,0.08 0.48,0.08q0.6,0 1.04,-0.36q0.4,-0.4 0.48,-1.2l0,-7.64q-0.4,0.12 -0.8,0.12q-1,0 -1.52,-0.72q-0.28,-0.48 -0.28,-0.99999q0,-0.80001 0.48,-1.48q0.52,-0.68001 1.36,-0.72q0.88,-0.16001 1.56,-0.76q0.68,-0.6 0.84,-1.68001q0.12,-0.55999 0.6,-0.8q0.48,-0.27999 1.04,-0.27999q0.56,0 0.84,0.19999q0.52,0.32001 1.04,1.32001q0.52,1 0.6,2.64l0,4.31999z"
                id="path49" />
        </g>
        <g stroke="null" stroke-width="27" fill="#1E80FF" font-family="Dream-BeautyLongGB" font-size="40px"
            aria-label="v" id="text12">
            <path stroke="null" fill="#1E80FF"
                d="m179.87544,16.37999q1.4,2.28 1.4,4.88q0,1.28 -0.32,2.52q-0.28,1.2 -0.72,2.08q-1.36,-0.96 -2.72,-0.96q-0.32,0 -0.4,0.04q-0.96,0.36 -1.24,1.48l-0.8,4.8q-0.44,2.32 -1.92,3.96q-1.44,1.6 -3.84,1.6q-0.8,0 -1.56,-0.16q-1.4,-0.28 -2.2,-0.96q-0.76,-0.68 -0.96,-1.56l-3.52,-12.84q-0.48,0.12 -0.92,0.12q-1,0 -1.44,-0.6q-0.6,-0.91999 -0.6,-1.87999q0,-1.16001 1.08,-1.52001q0.84,-0.12 1.48,-0.75999q0.68,-0.68 0.8,-1.92q0.08,-0.64 0.6,-0.92q0.52,-0.28 1.16,-0.28q0.4,0 0.64,0.08q0.44,0.28 0.92,1.28q0.52,1 0.88,2.79999q0.88,3.52 3.32,12.2l0.08,-0.32q0.64,-2.52 1.8,-9.91999q0.12,-1.36001 0.6,-2.52001q0.4,-1.31999 1.24,-2.08q0.88,-0.79999 2.28,-0.79999q1.52,0 2.84,0.51999q1.32,0.48001 2.04,1.64z"
                id="path52" />
        </g>
        <g stroke="null" stroke-width="27" fill="#1E80FF" font-family="Dream-BeautyLongGB" font-size="40px"
            aria-label="e" id="text14">
            <path stroke="null" fill="#1E80FF"
                d="m195.10543,29.51332q1.08,0.48 2.28,0.48q1.64,0 3.24,-0.76q1.6,-0.76 2.44,-1.84q0.12,0.52 0.12,1.24q0,2.24 -1.32,4.44q-1.32,2.2 -5,3.2q-1.16,0.32 -2.48,0.32q-2.44,0 -4.24,-1.24q-1.8,-1.2 -2.8,-2.64q-0.96,-1.44 -1.32,-2.48q-0.76,-2.16 -0.76,-4.08q0,-3.56 2.28,-7.03999q1.72,-2.16001 3,-2.96001q1.16,-0.75999 2.56,-1.11999q1.4,-0.40001 2.52,-0.48q1.12,-0.08 1.32,-0.04q1.28,-0.04 2.64,0.56q1.36,0.60001 2.36,1.88q1.36,1.76 1.36,3.76q0,0.72 -0.2,1.8q-0.16,1.04001 -0.64,1.76q-0.28,0.72 -1.12,1.64q-0.84,0.88 -2.44,1.52q-1.64,0.64 -3.16,0.64q-1.92,0 -3.36,-0.92q1.08,1.56 2.72,2.36l0,-0.00001zm1.56,-7.4q0.12,-0.36 0.12,-0.76q0,-1.04 -0.68,-1.79999q-0.64,-0.8 -1.72,-0.8q-0.8,0 -1.64,0.64q-0.56,0.64 -0.84,1.31999q-0.04,0.16 -0.2,0.56q-0.12,0.36 -0.2,0.76q0.16,0.6 0.72,1.16q0.6,0.52 1.76,0.64l0.36,0.04q0.92,0 1.52,-0.52q0.64,-0.56 0.8,-1.24z"
                id="path55" />
        </g>
        <g stroke="null" stroke-width="27" fill="#1E80FF" font-family="'HelloFont ID WangZheFengFan'" font-size="14px"
            aria-label="a" id="text16">
            <path stroke="null" fill="#1E80FF"
                d="m58.10903,58.63381q0,-1.9962 1.67752,-3.44798q1.71322,-1.45178 5.17534,-2.14743l0.35692,0.48393q-1.7846,0.78638 -2.39136,1.69375q-0.57107,0.87712 -0.57107,2.02645q0,0.6654 0.53538,1.39129q0.53538,0.69565 1.39199,1.14935q0.8923,0.45366 1.7846,0.45366q0.64246,0 1.21353,-0.27221l0,-8.83168q-0.64246,0 -1.3206,-0.75614q-0.35692,0.39319 -0.99938,0.6654q-0.60676,0.24196 -1.3563,0.24196q-0.96368,0 -1.85598,-0.36295q-0.85661,-0.39319 -0.96368,-0.3327q-0.32123,0.18147 -0.32123,0.96786q0,0.54442 0.10708,1.42154l-0.82092,0.18147l-1.89168,-3.6597q3.17659,-0.9981 4.99688,-2.90357l3.1052,2.48013q0.78522,-0.39319 1.67752,-1.02835q0.92799,-0.63516 1.67752,-1.39129q0.60676,0.81663 1.28491,1.20982q0.71384,0.39319 1.57045,0.39319q0.71384,0 1.49906,-0.21172q0,0.9981 -0.4283,1.63326q-0.39261,0.63516 -1.46337,1.17957l0,7.62186q0,0.6654 0.74953,1.11908q0.78522,0.42344 1.7846,0.48393l-2.60552,3.20602q-3.06951,0.18147 -4.35442,-2.05669l-2.96244,2.11718q-2.81967,0 -4.56858,-1.30056q-1.71322,-1.30056 -1.71322,-3.41774z"
                id="path58" />
        </g>
        <g stroke="null" stroke-width="27" fill="#1E80FF" font-family="'HelloFont ID WangZheFengFan'" font-size="14px"
            aria-label="d" id="text18">
            <path stroke="null" fill="#1E80FF"
                d="m107.01182,61.29133l-0.35897,0.29506q-0.35897,-0.04215 -1.20744,-0.04215q-2.02328,0 -4.30763,0.40043q-2.28435,0.40043 -3.13282,0.92732q-1.10954,-0.73763 -2.61068,-1.09591q-1.50114,-0.35828 -2.96965,-0.35828l0,-7.88224q-1.01164,-0.50581 -1.17481,-1.26453q1.37061,0 2.61068,-0.29506q1.27271,-0.31612 1.99065,-0.90624l4.7645,1.58066l0,-6.19618l-1.63168,-0.65334q0.5874,-0.10538 1.07691,-0.33721q0.52214,-0.25291 0.65267,-0.46366q0.45687,0.37936 1.46851,0.67441q1.04427,0.29506 2.02328,0.29506q0.94637,0 1.53378,-0.31613l0.62004,0.52689q-0.52214,0.12645 -1.01164,0.42151q-0.4895,0.29506 -0.62004,0.50583l0,13.13q1.33798,0.37936 2.28435,1.05377zm-6.39617,-1.32775l0,-6.09079l-2.05591,-0.56905q-0.1958,0.21075 -0.7832,0.46366q-0.55477,0.25291 -1.04427,0.25291l0,6.57554l0.94637,0.31613q1.17481,-0.71657 2.93702,-0.9484z"
                id="path61" />
        </g>
        <g stroke="null" stroke-width="27" fill="#1E80FF" font-family="'HelloFont ID WangZheFengFan'" font-size="14px"
            aria-label="m" id="text20">
            <path stroke="null" fill="#1E80FF"
                d="m123.72482,60.08957l1.32072,-1.56207l0,-7.96652q0,-0.99975 -1.9676,-1.53085l2.93792,-4.03013q1.07813,0.5311 1.77892,1.46834q0.72774,0.906 0.97032,2.18689l3.90824,-3.65524q1.9676,1.2809 2.3719,3.37407l3.77347,-3.18662q1.37462,2.06193 2.21018,2.06193q0.70079,0 1.64416,-0.68731q0,1.12469 -0.18867,1.71827q-0.18867,0.59361 -0.78165,1.2809l0,8.52889q0,0.43738 0.4043,0.68731q0.4043,0.24993 0.94337,0.24993q0.48516,0 0.83555,-0.18745l-3.42308,3.96765q-0.99727,0 -1.69806,-0.87476q-0.67383,-0.84352 -0.67383,-2.15565l0,-9.3724q-0.43125,-0.18745 -0.91641,-0.49986q-0.45821,-0.34365 -0.72774,-0.71855l-1.34767,1.09345l0,8.24771l0.78165,0.84352l0.59297,-0.40614l0.53907,0.87476q-1.07813,0.78103 -1.85978,1.49958q-0.75469,0.71855 -1.59025,1.78076q-0.72774,-0.99972 -1.64416,-1.84324q-0.88946,-0.81227 -1.53634,-1.18717l1.32072,-1.56207l0,-7.81034q0,-1.21841 -0.91641,-1.90572l-2.12932,1.74954l0,7.96652l0.56602,0.84352l0.59297,-0.40614l0.53907,0.87476q-1.07813,0.78103 -1.85978,1.49958q-0.75469,0.71855 -1.59025,1.78076q-0.72774,-0.99972 -1.64416,-1.84324q-0.88946,-0.81227 -1.53634,-1.18717z"
                id="path64" />
        </g>
        <g stroke="null" stroke-width="27" fill="#1E80FF" font-family="'HelloFont ID WangZheFengFan'" font-size="14px"
            aria-label="i" id="text22">
            <path stroke="null" fill="#1E80FF"
                d="m162.07547,45.53091l2.84221,-2.53091q1.18216,0.88999 2.26371,0.88999q0.70427,0 1.43368,-0.36156q-0.22637,1.27936 -1.18216,2.08591q-0.95579,0.80655 -2.18825,0.80655q-1.1067,0 -2.06249,-0.6953l-0.55335,0.44499l-0.55335,-0.63968zm0.37729,14.90732l1.20731,-1.39061l0,-7.92647q-0.20122,-0.11125 -0.72942,-0.55624l-0.42759,0.33375l-0.50305,-0.66749l2.99313,-2.44747q1.30792,1.44623 3.24465,1.44623q0.35213,0 0.5282,-0.02781q-0.30183,0.63968 -0.85518,1.1403q-0.5282,0.47281 -1.1067,0.75093l0,7.95428l0.67911,0.75093l0.5282,-0.36156l0.47789,0.77874q-0.93064,0.66749 -1.6349,1.30717q-0.70427,0.63968 -1.50914,1.61311q-0.67911,-0.86218 -1.50914,-1.61311q-0.80487,-0.75093 -1.38338,-1.08467z"
                id="path67" />
        </g>
        <g stroke="null" stroke-width="27" fill="#1E80FF" font-family="'HelloFont ID WangZheFengFan'" font-size="14px"
            aria-label="n" id="text24">
            <path stroke="null" fill="#1E80FF"
                d="m187.36304,61.58786l1.75899,-1.82069l0,-9.10345q0,-0.83752 -0.57437,-1.45655q-0.57437,-0.61903 -1.93848,-0.61903l3.94876,-4.58814q2.62054,1.49297 3.15901,3.93269l5.85134,-3.64138q1.75899,2.33048 2.90772,2.33048q0.93334,0 2.18977,-0.8011q0,1.3109 -0.25128,2.00276q-0.25128,0.69189 -1.04104,1.49297l0,9.94096q0,0.50979 0.53847,0.8011q0.53847,0.29131 1.25642,0.29131q0.64616,0 1.11283,-0.21848l-4.55902,4.62455q-1.32822,0 -2.26156,-1.01959q-0.89745,-0.98317 -0.89745,-2.51255l0,-10.92414q-0.53847,-0.21848 -1.14873,-0.69186q-0.61026,-0.47338 -1.04104,-1.12883l-2.44105,1.67503l0,9.61324l0.75385,0.98317l0.78975,-0.47338l0.71796,1.01959q-1.43591,0.91034 -2.47695,1.74786q-1.00514,0.83752 -2.11797,2.07559q-0.96924,-1.16524 -2.18977,-2.14841q-1.18463,-0.94676 -2.04618,-1.38372z"
                id="path70" />
        </g>
        <svg x="0.6771" y="0.98568" width="55.25588" height="64" version="1.1" id="svg_3">
            <svg viewBox="0 0 2534 2935" version="1.1" id="svg_7" width="100%" height="100%">
                <path fill-rule="evenodd" fill="#1E80FF"
                    d="m874.575,317.038c-163.309,165.254 -310.242,313.962 -326.52,330.462l-29.594,30l-6.688,15c-44.847,100.589 -68.551,201.843 -73.744,315c-3.927,85.569 6.28,159.208 33.373,240.775c8.728,26.278 24.862,67.725 26.362,67.725c0.405,0 152.275,-151.538 337.488,-336.752l336.751,-336.752l-0.251,-312.96l-0.252,-312.959l-296.925,300.461m487.425,12.713l0,312.75l336.391,336.39l336.391,336.39l2.131,-4.816c11.496,-25.989 26.954,-69.509 36.039,-101.465c21.658,-76.178 27.557,-138.192 21.498,-226c-7.215,-104.574 -32.054,-206.136 -71.343,-291.711l-5.607,-12.212l-115.5,-116.763c-63.525,-64.22 -155.537,-157.274 -204.47,-206.788c-220.714,-223.332 -334.75,-338.526 -335.125,-338.526c-0.223,0 -0.405,140.738 -0.405,312.751m-235.859,745.918c-24.947,77.457 -45.671,141.171 -46.054,141.586c-0.383,0.415 -11.022,4.074 -23.642,8.132c-12.62,4.058 -77.395,24.934 -143.945,46.392c-66.55,21.457 -178.6,57.554 -249,80.214c-70.4,22.659 -128.323,41.502 -128.718,41.872c-0.395,0.369 2.325,6.267 6.044,13.106l6.762,12.435l118.956,38.314c65.426,21.072 163.056,52.514 216.956,69.869c53.9,17.356 119.6,38.512 146,47.015c26.4,8.502 48.675,15.828 49.5,16.28c0.916,0.502 19.211,55.759 47,141.96l45.5,141.139l0.252,-235.073c0.139,-129.29 0.139,-340.598 0,-469.573l-0.252,-234.5l-45.359,140.832m236.017,328.831c0,461.544 0.034,469.901 1.883,464.5c1.036,-3.025 21.512,-66.475 45.504,-141c23.992,-74.525 43.988,-135.882 44.436,-136.348c0.448,-0.466 8.173,-3.246 17.167,-6.176c35.658,-11.62 255.444,-82.475 413.761,-133.39c53.026,-17.053 96.753,-31.361 97.172,-31.795c1.963,-2.035 14.773,-26.824 14.139,-27.361c-0.396,-0.335 -49.77,-16.405 -109.72,-35.711c-252.183,-81.212 -295.405,-95.14 -342.5,-110.373c-27.225,-8.806 -58.709,-19.012 -69.965,-22.679l-20.465,-6.667l-45.114,-140c-24.813,-77 -45.38,-140.675 -45.706,-141.5c-0.326,-0.825 -0.592,210 -0.592,468.5m-1110.393,-410.217c-65.357,104.582 -114.588,199.194 -152.313,292.717c-49.815,123.493 -76.491,234.623 -83.505,347.881l-1.139,18.381l27.908,28.119c15.349,15.465 84.817,85.719 154.374,156.119c271.623,274.916 559.162,565.89 638.867,646.5c45.954,46.475 121.773,123.2 168.487,170.5c86.086,87.164 136.948,138.561 217.829,220.118l44.744,45.118l45.302,-45.618c24.915,-25.09 102.199,-103.211 171.741,-173.602c69.542,-70.391 166.265,-168.276 214.94,-217.521c48.675,-49.246 162.525,-164.449 253,-256.007c90.475,-91.559 184.977,-187.174 210.004,-212.479c145.548,-147.165 226.24,-228.786 287.527,-290.841l68.969,-69.833l-0.288,-10.167c-1.021,-36.039 -7.456,-85.971 -17.317,-134.374c-27.894,-136.908 -87.248,-282.255 -180.452,-441.895c-17.601,-30.146 -37.495,-62.847 -47.583,-78.215l-7.013,-10.684l0.593,7.5c0.326,4.125 1.258,15.6 2.072,25.5c0.814,9.9 2.007,33.211 2.65,51.801c1.635,47.236 -0.233,86.141 -6.197,129.1c-24.392,175.695 -115.247,367.082 -276.332,582.099c-96.194,128.401 -217.837,267.463 -411.127,470c-134.866,141.318 -174.957,185.517 -299.949,330.679c-5.532,6.424 -10.282,11.683 -10.557,11.688c-0.275,0 -22.1,-24.983 -48.5,-55.528c-94.663,-109.525 -128.124,-146.131 -232.49,-254.339c-207.45,-215.087 -319.786,-340.371 -415.655,-463.563c-190.061,-244.229 -289.935,-459.927 -305.8,-660.437c-3.97,-50.179 -2.6,-110.843 3.908,-172.979c0.776,-7.414 1.305,-13.587 1.174,-13.717c-0.131,-0.131 -8.173,12.46 -17.872,27.979"
                    id="svg_8" />
            </svg>
        </svg>
    </g>
</svg>